<svg xmlns="http://www.w3.org/2000/svg" viewBox="0 0 27.79 27.68"><defs><style>.cls-1{fill:#87B4DC;}</style></defs><g id="Layer_2" data-name="Layer 2"><g id="Layer_1-2" data-name="Layer 1"><path class="cls-1" d="M9.62,2.7A3.71,3.71,0,0,1,13,0a3.71,3.71,0,0,1,3.53,2.52,1.72,1.72,0,0,1,1.93-.27A1.7,1.7,0,0,1,19.33,4a3.11,3.11,0,0,1,4.08.48,3.11,3.11,0,0,1-.21,4.11A1.29,1.29,0,0,1,25,10.4a2.87,2.87,0,0,1,2.77,2.78,3.43,3.43,0,0,1-2.48,3.21,1.75,1.75,0,0,1,1.36,1.74,1.72,1.72,0,0,1-1.54,1.57,3.91,3.91,0,0,1-5.67,4.51,1.31,1.31,0,1,1-2,1.72,4.21,4.21,0,0,1-6.54.35,1.64,1.64,0,0,1-2,.85,1.64,1.64,0,0,1-.92-2,3.55,3.55,0,0,1-4.32-3.5,1.42,1.42,0,0,1-1.82-.38,1.42,1.42,0,0,1,.22-1.85,3,3,0,0,1-.31-5.6A1.52,1.52,0,0,1,.28,12.36,1.52,1.52,0,0,1,1.76,10.9a2.93,2.93,0,0,1-.4-3.19A5,5,0,0,1,3.65,5.14c1-.38,1.66,0,2.63,0-.71-.67-.14-2,.7-2.51a2.45,2.45,0,0,1,2.64,0"/></g></g></svg>