<svg xmlns="http://www.w3.org/2000/svg" viewBox="0 0 25.82 26.69"><defs><style>.cls-1{fill:#e20000;}</style></defs><g id="Layer_2" data-name="Layer 2"><g id="Layer_1-2" data-name="Layer 1"><path class="cls-1" d="M11.58,5.89A22.49,22.49,0,0,1,11.37.83.85.85,0,0,1,11.65.1c.38-.24.82.18,1.06.55A20.17,20.17,0,0,1,13.8,2.57a3.15,3.15,0,0,1,.09-1.9C14.17.09,15-.24,15.48.21a1.5,1.5,0,0,1,.35.87,14.3,14.3,0,0,1-.05,4.57,7.41,7.41,0,0,1,1.35-3.37,1.47,1.47,0,0,1,1.06-.73c1,0,1.11,1.38.91,2.33a2.62,2.62,0,0,1,1.23-.94c.5-.13,1.15.18,1.16.7a1.23,1.23,0,0,1-.29.72A10,10,0,0,1,17.87,7.3c1.49-.85,3.11-1.73,4.81-1.56.42,0,.95.32.83.73a.76.76,0,0,1-.36.37L20.71,8.49a7.3,7.3,0,0,1,3-.5c.43,0,1,.12,1.12.53.25.56-.36,1.11-.89,1.43l-3.21,2a6.59,6.59,0,0,1,3.48-1.2c.77,0,1.82.48,1.53,1.19a1.21,1.21,0,0,1-.38.46A12.8,12.8,0,0,1,22.76,14a3.79,3.79,0,0,1,1.8-.07,1.28,1.28,0,0,1,1,1.36,1.56,1.56,0,0,1-.87.93,4.53,4.53,0,0,1-4.09,0c1.74.35,3.72,1.19,4.08,2.93a1.35,1.35,0,0,1-.2,1.11,1.41,1.41,0,0,1-1.61.16,8.28,8.28,0,0,0-1.58-.72,4,4,0,0,1,1.32,2c.14.8-.43,1.76-1.23,1.7a1.94,1.94,0,0,1-1.23-.88,23.71,23.71,0,0,1-2.19-3.25c.19,1,.72,1.82,1,2.77a2.42,2.42,0,0,1-.68,2.66c-.82.54-2.23-.31-1.83-1.2a4.89,4.89,0,0,1-1.07,3.13c-1.09,0-1.52-1.4-1.63-2.48l-.37-3.58a10.69,10.69,0,0,1-1.45,4.42,1.5,1.5,0,0,1-.72.71c-.55.18-1.14-.36-1.23-.94a3.18,3.18,0,0,1,.38-1.69,3.18,3.18,0,0,1-2.8,2.19A8.44,8.44,0,0,1,9.78,19.7a25,25,0,0,1-3.54,3,1.82,1.82,0,0,1-1,.42,1.26,1.26,0,0,1-1-1.64,3.09,3.09,0,0,1,1.46-1.59,5.37,5.37,0,0,1-4.06.46A8.5,8.5,0,0,1,6.47,17a11,11,0,0,1-4.17.64c-.64,0-1.38-.19-1.63-.77-.37-.86.63-1.64,1.47-2-.89-.1-2-.39-2.13-1.28s1.08-1.56,2.06-1.6a13.16,13.16,0,0,1,4.36.83,11.54,11.54,0,0,1-4.94-2.62C1,9.66.59,8.73,1.2,8.44a1,1,0,0,1,.66,0,10.86,10.86,0,0,1,2.3.75A5.1,5.1,0,0,1,2.3,6.68c.4-.64,1.39-.35,2,.05A15.28,15.28,0,0,1,7.67,9.64,8.12,8.12,0,0,1,4.89,4.91a1.72,1.72,0,0,1,.17-1.36,1.31,1.31,0,0,1,1.66-.22A3.74,3.74,0,0,1,8,4.65,3.44,3.44,0,0,1,7.32,3a1.17,1.17,0,0,1,1-1.24,1.58,1.58,0,0,1,1.08.64,10.74,10.74,0,0,1,2.16,3.5"/></g></g></svg>