<svg xmlns="http://www.w3.org/2000/svg" viewBox="0 0 27.77 27.84"><defs><style>.cls-1{fill:#87B4DC;}</style></defs><g id="Layer_2" data-name="Layer 2"><g id="Layer_1-2" data-name="Layer 1"><path class="cls-1" d="M10.67,2.47A2.13,2.13,0,0,1,13,0a4,4,0,0,1,2.82,2.47A2.83,2.83,0,0,1,19.26.77a2.83,2.83,0,0,1,1.68,3.49,2.86,2.86,0,0,1,3.64.37,2.4,2.4,0,0,1-.43,3.49,2.6,2.6,0,0,1,3.13,2,3.7,3.7,0,0,1-1.52,3.63,1.4,1.4,0,0,1,1.56.56A2.92,2.92,0,0,1,27.77,16,4.53,4.53,0,0,1,27,18.69a2.74,2.74,0,0,1-2.49,1.18,3.13,3.13,0,0,1-4.44,3.93,2.79,2.79,0,0,1-5.14,2,2.61,2.61,0,0,1-3,2,4.56,4.56,0,0,1-3.09-2.39,2.62,2.62,0,0,1-3.22-.28,2.61,2.61,0,0,1-.3-3.22,2.61,2.61,0,0,1-3-1.2A2.61,2.61,0,0,1,3,17.53a2.16,2.16,0,0,1-3-1.66,2.68,2.68,0,0,1,2.28-2.8A3,3,0,0,1,.51,9.31a3,3,0,0,1,3.8-1.69A2.11,2.11,0,0,1,3.94,4.5a2.11,2.11,0,0,1,3.13.32,2.28,2.28,0,0,1,.4-3.32,2.27,2.27,0,0,1,3.2,1"/></g></g></svg>