<svg xmlns="http://www.w3.org/2000/svg" viewBox="0 0 156.21 160.79"><defs><style>.cls-1{fill:#e20000;}.cls-2{opacity:0.5;}.cls-3{fill:#0f69ba;}</style></defs><g id="Layer_2" data-name="Layer 2"><g id="Layer_1-2" data-name="Layer 1"><path class="cls-1" d="M72.8,114c0-.78,1.69-2.07,2.48-2a2.83,2.83,0,0,1,2.06,2.13,2.26,2.26,0,0,1,2.39-.59,1.36,1.36,0,0,1,.44,2.14,3.26,3.26,0,0,1,2.7.06,1.53,1.53,0,0,1,.37,2.35,1.94,1.94,0,0,1,2.28,3.09c.79-.11,1.81-.1,2.13.63s-.48,1.58-1.2,2.06a1.93,1.93,0,0,1,.37,3.72,1.79,1.79,0,0,1,1.47,1.92,1.77,1.77,0,0,1-1.9,1.49,2.36,2.36,0,0,1,.14,2.39,1.42,1.42,0,0,1-2.14.32c.07,1.21,0,2.69-1,3.29a1.69,1.69,0,0,1-1.71,0,2,2,0,0,1-3.53,2,6.1,6.1,0,0,1-1.28,1.53,2.08,2.08,0,0,1-1.88.4,1.27,1.27,0,0,1-.78-1.6c-.14.42-.62.6-1,.71A3.06,3.06,0,0,1,71,140c-.66-.34-1-1.38-.37-1.83a5.18,5.18,0,0,1-1.87,1,2.07,2.07,0,0,1-2-.49,1.31,1.31,0,0,1,0-1.87,5.88,5.88,0,0,1-2.09.06,2,2,0,0,1-1.54-1.27,1.22,1.22,0,0,1,1-1.55,6.29,6.29,0,0,1-2.2-1.77,2.77,2.77,0,0,1-.63-1.38,1.29,1.29,0,0,1,.67-1.28,3.49,3.49,0,0,1-2.24-2c-.29-1,.5-2.3,1.54-2.15a1.84,1.84,0,0,1-.77-2.07A1.87,1.87,0,0,1,62.31,122a1.78,1.78,0,0,1-.76-2,1.31,1.31,0,0,1,1.91-.64A1.67,1.67,0,0,1,63,117a1.35,1.35,0,0,1,2.19.14,1.76,1.76,0,0,1,.4-2.53,2.56,2.56,0,0,1,2.76.1A2.13,2.13,0,0,1,70,112a2.7,2.7,0,0,1,2.78,2"/><g class="cls-2"><path class="cls-3" d="M110.69,128.33c-.69.51-1.47.88-2.15,1.4a7.48,7.48,0,0,0-2,2.51,25.72,25.72,0,0,1-3.23,5.3,8.31,8.31,0,0,1-6.07,2.71c-1.16-.07-1.65-.72-2.52-1.33a5.42,5.42,0,0,0-1.72-.76c-3.4-.91-6.09,1.41-6.13,4.83a5.39,5.39,0,0,0,1.42,3.52c1.49,1.82.91,3.82-.59,5.48-2.33,2.6-6.57,2.23-8.41,5.45-.47.81-.47,1.62-1.5,2a2.63,2.63,0,0,1-3.3-1.21,9,9,0,0,0-1-2.43,5.3,5.3,0,0,0-2.27-1.6c-2.31-1-5.32-.87-6.82-3.18s.26-4.52.19-6.85c-.12-3.73-3.13-7.89-7.3-6.73a33.49,33.49,0,0,0-3,1.45,3.47,3.47,0,0,1-3.77-.93c-1.75-1.59-2.41-3.8-3.33-5.89a18.14,18.14,0,0,0-2.49-4.5c-.62-.72-2-1.36-2-2.38,0-1.26,1.31-1.84,2.19-2.45a7.86,7.86,0,0,0,2.49-3.57c.9-2.12,1.62-4.24,3.56-5.67a5.41,5.41,0,0,1,3.39-1.13,19.66,19.66,0,0,0,3.25.15,12.71,12.71,0,0,0,4.67-1.78c1.09-.66,2.41-1.6,2.77-2.9a3.55,3.55,0,0,0-.19-2.25c-.26-.62-.79-1-1.09-1.62-1.1-2.12.53-4.57,2.1-5.91,1.82-1.58,4.17-2.13,6.13-3.47a7.42,7.42,0,0,0,2-1.84c.55-.78.92-1.94,1.83-2.39,2.49-1.23,3.4,1.83,4.61,3.24a20.79,20.79,0,0,0,4.33,3.29c.93.61,1.89,1.18,2.86,1.75a6.31,6.31,0,0,1,1.83,1.31,3.67,3.67,0,0,1,.75,2.16c0,1.25-.7,2-1.41,2.94a4.53,4.53,0,0,0-.61,4.65c1.23,2.58,4.9,2.94,7.41,3,1.08,0,2.14-.13,3.22-.22a5.92,5.92,0,0,1,4.13,1,10.33,10.33,0,0,1,4.08,5.61,8.23,8.23,0,0,0,2.78,4.45c.87.58,1.81,1,2.15,2.07s-.4,2.14-1.26,2.88c-.61.53.28,1.41.88.88,1.34-1.15,2.18-2.72,1.45-4.46a4.27,4.27,0,0,0-1.61-1.88,6.37,6.37,0,0,1-2.5-2.54c-1-1.87-1.25-3.8-2.59-5.52a10.45,10.45,0,0,0-4.71-3.54,10.28,10.28,0,0,0-4.35-.08,17.32,17.32,0,0,1-3.22,0c-1.57-.14-3.75-.5-4.64-2-1.32-2.2.89-3.61,1.68-5.39a4.8,4.8,0,0,0-.57-4.67c-1-1.32-2.78-2-4.15-2.86-1.74-1.08-3.83-2.21-5.14-3.83S79.31,89,77,88.85c-1.88-.09-2.83,1.05-3.73,2.52-1.41,2.31-3.69,2.94-6,4.13-3.06,1.61-7,5.82-4.43,9.45.51.73,1.1,1.32.95,2.31a3.47,3.47,0,0,1-1.61,1.95A10.75,10.75,0,0,1,57,111.29c-1.24.07-2.45-.32-3.7-.16a6.74,6.74,0,0,0-2.88,1.14,10.55,10.55,0,0,0-3.68,5c-.7,1.78-1.31,3.59-3,4.66-1.36.89-2.93,2.26-2.25,4.1.34.9,1.25,1.35,1.89,2a7.79,7.79,0,0,1,1.46,2.18c1,2,1.72,4.17,2.82,6.12,1,1.78,2.58,3.63,4.7,4,2.47.44,4.1-2,6.48-1.82,2.91.17,4.46,3.23,4.48,5.84,0,2.32-1.43,4.35-.36,6.65,1,2.09,3,3,5.08,3.55a12,12,0,0,1,3.61,1.25c1.25.81,1.18,2,1.75,3.19a3.86,3.86,0,0,0,4.36,1.72c2.26-.5,2.2-2.77,3.89-4,1.4-1,3.08-1.27,4.6-2A8.16,8.16,0,0,0,90,150.81a4.43,4.43,0,0,0-.38-4.67c-1-1.32-1.71-2.42-1.38-4.12.48-2.44,2.69-3.31,4.92-2.51a6.69,6.69,0,0,1,1.71,1.18,4.36,4.36,0,0,0,2.76.81,9.8,9.8,0,0,0,5.54-2.13c1.74-1.35,2.59-3.26,3.67-5.11a16.27,16.27,0,0,1,1.85-2.95,18,18,0,0,1,2.68-1.9C112,128.94,111.33,127.85,110.69,128.33Z"/><path class="cls-3" d="M68.17,102.77a2.27,2.27,0,0,1,0-1.1,4.08,4.08,0,0,1,.41-1.25,4,4,0,0,1,.87-1,4.14,4.14,0,0,1,1.21-.87,2.17,2.17,0,0,1,1.25-.15,1.26,1.26,0,0,1,.56.23s.08.11.12.11.1-.15-.1,0a10,10,0,0,1-2.9,1.56A4.7,4.7,0,0,0,67,102.77a.64.64,0,0,0,.44.77.65.65,0,0,0,.77-.44c.38-1,1.66-1.56,2.61-2a12.9,12.9,0,0,0,1.75-.86c.56-.36,1.31-.89,1.27-1.63s-.75-1.21-1.37-1.42a3.29,3.29,0,0,0-1.84,0,4.68,4.68,0,0,0-1.73,1,6.75,6.75,0,0,0-1.24,1.32A4.58,4.58,0,0,0,67,103.1c.25.77,1.45.44,1.21-.33Z"/><path class="cls-3" d="M87.61,102.91a10.76,10.76,0,0,0-1.27-3,5.14,5.14,0,0,0-2.46-2.26c-1.2-.44-3.09-.34-3.47,1.17s1.49,2.6,2.66,3.06a19.09,19.09,0,0,1,2.15.65,5.8,5.8,0,0,1,1.34,1c.58.56,1.46-.32.89-.89a5.87,5.87,0,0,0-2.58-1.53,5.29,5.29,0,0,1-3.06-1.47c-.26-.32-.25-.62.12-.82a1.91,1.91,0,0,1,1.52,0,2.66,2.66,0,0,1,.94.61,5.58,5.58,0,0,1,.83,1,9.57,9.57,0,0,1,1.18,2.75.63.63,0,0,0,1.21-.33Z"/><path class="cls-3" d="M100.05,116a12.35,12.35,0,0,1,2.36,1.45,4,4,0,0,1,1.45,2c.1.4,0,.69-.34.85a1.07,1.07,0,0,1-1-.1c-.81-.52-.61-1.65-.59-2.47a3,3,0,0,0-1.22-2.79c-.69-.42-1.32.66-.64,1.08a1.35,1.35,0,0,1,.58,1,8,8,0,0,1,0,1.47,3.76,3.76,0,0,0,.34,1.84,2.46,2.46,0,0,0,1.33,1.15,2.08,2.08,0,0,0,2.82-1.4,3.84,3.84,0,0,0-1.37-3.09,12.24,12.24,0,0,0-3.07-2.06.65.65,0,0,0-.86.22.64.64,0,0,0,.22.86Z"/><path class="cls-3" d="M103.13,131c-.45.9-.79,1.84-1.24,2.74-.11.22-.22.44-.34.64l-.17.28-.11.16-.06.08a3.53,3.53,0,0,1-1.22,1,1,1,0,0,1-1,0,.83.83,0,0,1-.28-.85c.2-1,1.2-1.42,2.17-1.65,1.29-.3,2.58-.6,3.38-1.76a.63.63,0,1,0-1.08-.63c-.67,1-2.1,1-3.14,1.32a3.28,3.28,0,0,0-2.56,2.53,2,2,0,0,0,2.24,2.43,4.26,4.26,0,0,0,2.94-2.23c.64-1.09,1-2.29,1.6-3.42a.64.64,0,0,0-.23-.86.63.63,0,0,0-.85.23Z"/><path class="cls-3" d="M86.07,147.71c-.25.41-.86.43-1.37.44a7.47,7.47,0,0,0-2.06.19,5.53,5.53,0,0,0-3.44,3.34.62.62,0,0,0,.16.61,4,4,0,0,0,4.63.17,9,9,0,0,0,3.16-4.12.65.65,0,0,0-.22-.86.64.64,0,0,0-.86.23,8.69,8.69,0,0,1-2.45,3.51,2.84,2.84,0,0,1-3.37.19l.16.6a4,4,0,0,1,3-2.57c1.28-.14,2.92.21,3.71-1.1a.63.63,0,0,0-1.08-.63Z"/><path class="cls-3" d="M66.83,147.58l2.69,1.7,1.33.84.6.38a.7.7,0,0,1,.16.14s.08.12,0,0,0,.09,0,0,0-.07,0,0,.06-.05,0,0l-.07.07a1,1,0,0,1-.39.18,2.93,2.93,0,0,1-1.18.1,3.13,3.13,0,0,1-1.11-.35,1.71,1.71,0,0,1-.79-.71,1.88,1.88,0,0,1-.07-.63c0-.28,0-.55-.07-.82-.07-.52-.16-1-.18-1.56a.63.63,0,1,0-1.25,0c0,.55.12,1.1.19,1.65a7.45,7.45,0,0,0,.21,1.77,3.43,3.43,0,0,0,2.65,1.85c1,.17,2.46.07,3.11-.88a1.3,1.3,0,0,0-.16-1.65,6.71,6.71,0,0,0-1.43-1l-3.63-2.3c-.68-.43-1.31.65-.63,1.08Z"/><path class="cls-3" d="M54.35,135c-.81.83-2-.07-2.56-.69s-1.64-1.72-1.58-2.85a1.51,1.51,0,0,1,.48-1.09.46.46,0,0,1,.33-.11.84.84,0,0,1,.54.24,3.16,3.16,0,0,1,.81,1.49c.17.56.37,1.1.57,1.65.34.94.66,2.31,1.86,2.43a.62.62,0,0,0,.62-.62.65.65,0,0,0-.62-.63h.06s-.06-.09,0,0a1.54,1.54,0,0,0-.12-.13c.06.07,0,0,0-.06a6,6,0,0,1-.3-.63c-.2-.53-.41-1.07-.59-1.62-.42-1.29-.88-3.1-2.48-3.36-1.43-.23-2.33,1.2-2.37,2.47,0,1.49,1,2.77,2,3.76A4.11,4.11,0,0,0,53,136.5a2.4,2.4,0,0,0,2.21-.62c.56-.57-.32-1.46-.89-.89Z"/><path class="cls-3" d="M55,114.51a3.28,3.28,0,0,0-1.7.12,5.68,5.68,0,0,0-1.46.62,5.53,5.53,0,0,0-1.51,1.5,4.37,4.37,0,0,0-.91,1.81,2,2,0,0,0,.63,1.86,2.35,2.35,0,0,0,1.66.58A2.77,2.77,0,0,0,54,118.66c.14-.58.17-1.17.31-1.74a2.68,2.68,0,0,1,.29-.77,1.32,1.32,0,0,1,.52-.5c.71-.39.08-1.47-.63-1.08A3.33,3.33,0,0,0,53,117.08a12.84,12.84,0,0,1-.24,1.38,2.23,2.23,0,0,1-.52,1,1,1,0,0,1-.88.28,1.13,1.13,0,0,1-.47-.21l-.18-.18c.05.07,0,0,0-.06l0-.09s0,0,0,0a1.79,1.79,0,0,1,.43-1.39,5.88,5.88,0,0,1,1.1-1.29,3.64,3.64,0,0,1,1.19-.61,6.86,6.86,0,0,1,.78-.2h.27a.48.48,0,0,0,.12,0c.08,0,.08,0,0,0l.1,0a.63.63,0,0,0,.77-.44.62.62,0,0,0-.44-.76Z"/><path class="cls-3" d="M75.71,110.78a2.53,2.53,0,0,1,1.63-1.54A1.82,1.82,0,0,1,79,110.69a.64.64,0,0,0,1.07.45,1.94,1.94,0,0,1,1.23-.55c.78.11,1,.52.71,1.21a.63.63,0,0,0,.61,1,2.78,2.78,0,0,1,1.82-.12c.57.21,1.27.84.64,1.49a.63.63,0,0,0,.76,1,1.31,1.31,0,0,1,1.52,2.1c-.31.36-.14,1.13.45,1.07a2.76,2.76,0,0,1,1.07,0l.41.71a2.76,2.76,0,0,1-.87.83.64.64,0,0,0,.14,1.15,1.33,1.33,0,0,1,.22,2.58.63.63,0,0,0,.15,1.14,1.1,1.1,0,0,1-.26,2.18.63.63,0,0,0-.54.94,1.65,1.65,0,0,1,.19,1.46c-.17.43-.61,1-1.21.49a.63.63,0,0,0-1.06.44c0,1,0,3.62-1.81,2.71-.44-.22-1.12.16-.92.71a1.43,1.43,0,0,1-2.48,1.41.64.64,0,0,0-1,.12,6.54,6.54,0,0,1-.74,1,1.41,1.41,0,0,1-.39.34c-.5.49-1.06.32-1.67-.52a.63.63,0,0,0-1.14-.48c-.24.41-1.19.58-1.61.59s-1.54-.38-1-1-.15-1.39-.76-1a5.47,5.47,0,0,1-1.4.77c-.58.18-2.76-.05-1.63-1.2a.63.63,0,0,0-.6-1.05,5,5,0,0,1-1.76.06c-.46-.1-2.07-1.28-.58-1.62a.63.63,0,0,0,.15-1.14c-.65-.34-3.67-2.37-2.16-3.35.35-.22.46-.88,0-1.08a3.84,3.84,0,0,1-1.56-1c-.5-.61-.67-2,.54-2,.5,0,.88-.72.44-1.06a1.22,1.22,0,0,1,.61-2.27c.48,0,.9-.71.44-1.07a1.51,1.51,0,0,1-.63-.78c0-.85.29-1.15,1-.92s1.34-.52.76-1a1.29,1.29,0,0,1-.59-1,.72.72,0,0,1,1.3-.34l1.08-.63a1.16,1.16,0,0,1,.08-1.6,1.89,1.89,0,0,1,2.23,0,.63.63,0,0,0,.91-.71,1.5,1.5,0,0,1,1.2-2,2.05,2.05,0,0,1,2.08,1.56c.24.76,1.45.43,1.2-.34A3.29,3.29,0,0,0,72,108a2.78,2.78,0,0,0-2,3.51l.92-.71a3.13,3.13,0,0,0-3.74.17,2.41,2.41,0,0,0-.28,3.12c.47.62,1.52.06,1.08-.63a2,2,0,0,0-3-.46,2.26,2.26,0,0,0,.32,3.37l.76-1a2,2,0,0,0-2.64.62,2.33,2.33,0,0,0,.73,3l.45-1.06a2.44,2.44,0,0,0-1.49,4.4l.44-1.07a2.24,2.24,0,0,0-2.22,2.31c0,1.52,1.35,2.51,2.61,3v-1.08c-2.59,1.68.45,4.63,2.16,5.51l.15-1.14a1.89,1.89,0,0,0-1.2,2.79c.85,1.5,2.73,1.39,4.2,1.18l-.61-1a2,2,0,0,0,.28,3c1.38,1,3,.19,4.26-.64l-.76-1a1.81,1.81,0,0,0,.57,2.84,3.4,3.4,0,0,0,4-1l-1.14-.48a1.93,1.93,0,0,0,1.69,2.46c1.57.17,2.62-1.15,3.39-2.31L80,136a2.67,2.67,0,0,0,4.58-2.62l-.92.7a2.36,2.36,0,0,0,3-.46,4.68,4.68,0,0,0,.74-3.33l-1.07.45a2,2,0,0,0,2.74,0,2.82,2.82,0,0,0,.24-3.46l-.54.94a2.34,2.34,0,0,0,.6-4.63l.15,1.14a2.58,2.58,0,0,0-.52-4.87l.15,1.14c.88-.62,2-1.62,1.45-2.83-.45-1-1.71-1.13-2.69-1l.44,1.06a2.57,2.57,0,0,0-3-4.06l.76,1a2.08,2.08,0,0,0,.08-2.79c-.9-1.16-2.5-1-3.76-.67l.61,1a2,2,0,0,0-.2-2.87c-1.1-.91-2.55-.37-3.52.43l1.07.44a3.25,3.25,0,0,0-2.69-2.75,3.62,3.62,0,0,0-3.08,2.5c-.15.79,1,1.13,1.2.34Z"/><path class="cls-3" d="M76.53,121.4l-.27.07c-.08,0-.11,0,0,0H76.2a1.66,1.66,0,0,0-.59.15,2.39,2.39,0,0,0-.93.91,2.15,2.15,0,0,0-.29,1.44,2,2,0,0,0,.87,1.27,2.55,2.55,0,0,0,2.71.11,2.31,2.31,0,0,0,1-2.46,2.09,2.09,0,0,0-2.46-1.49.63.63,0,0,0-.43.77.63.63,0,0,0,.77.43h0c.07,0,.06,0,0,0h.17c.15,0-.13,0,0,0l.2,0h0s.1,0,.12.06l.08,0,0,0c.05,0,.05,0,0,0s.1.09.13.12.13.12,0,0l0,.07.06.1,0,.06,0-.05.06.2c0,.14,0-.14,0,0v.1a.14.14,0,0,1,0,.09v0c0,.07,0,.06,0,0a.87.87,0,0,1,0,.22s0,.08,0,.11.07-.13,0,0a1.32,1.32,0,0,1-.12.2s0,.08,0,.07h0c-.06.05-.12.15-.2.19.12-.06,0,0,0,0l-.1.06-.11.06c.1-.06,0,0,0,0a1.09,1.09,0,0,1-.24.07l-.1,0h-.28c-.16,0,.13,0,0,0l-.1,0-.24-.08s.11.06,0,0l-.14-.07-.1-.07s-.12-.09,0,0c-.07,0-.12-.11-.19-.17h0a.22.22,0,0,1,0-.08.64.64,0,0,1-.08-.14c0,.1,0,0,0,0a.13.13,0,0,1,0-.09v.08a.2.2,0,0,1,0-.07v-.12c0-.12,0,0,0,0a.69.69,0,0,1,0-.24l0-.09c0,.15,0,0,0,0l.15-.23c-.08.1,0,0,0,0l.12-.12.09-.09c.12-.11-.09.06,0,0l.06,0s.15-.08,0,0,0,0,.07,0-.15,0-.09,0h.1a4,4,0,0,0,.6-.12.63.63,0,0,0,.43-.77.63.63,0,0,0-.77-.43Z"/></g><path class="cls-1" d="M73.65,34.05A22.49,22.49,0,0,1,73.44,29a.85.85,0,0,1,.29-.74c.37-.23.82.18,1.06.56.39.62.76,1.26,1.09,1.92a3.07,3.07,0,0,1,.08-1.9,1.09,1.09,0,0,1,1.6-.47,1.53,1.53,0,0,1,.35.88,14.6,14.6,0,0,1,0,4.57,7.41,7.41,0,0,1,1.35-3.37,1.47,1.47,0,0,1,1.05-.73c1,0,1.12,1.38.92,2.32a2.64,2.64,0,0,1,1.22-.93.92.92,0,0,1,1.17.7,1.35,1.35,0,0,1-.3.72A10,10,0,0,1,80,35.46c1.48-.85,3.1-1.74,4.81-1.57.42,0,.95.33.82.73a.8.8,0,0,1-.35.38l-2.45,1.64a7.64,7.64,0,0,1,3-.5c.44,0,1,.13,1.13.53.25.57-.36,1.12-.89,1.44l-3.21,2a6.56,6.56,0,0,1,3.47-1.2c.78,0,1.82.47,1.54,1.19a1.23,1.23,0,0,1-.39.46,13,13,0,0,1-2.63,1.69,3.71,3.71,0,0,1,1.81-.07,1.26,1.26,0,0,1,1,1.36,1.57,1.57,0,0,1-.86.93,4.55,4.55,0,0,1-4.1,0c1.75.34,3.73,1.18,4.08,2.92a1.3,1.3,0,0,1-.2,1.11,1.41,1.41,0,0,1-1.61.17,8.2,8.2,0,0,0-1.57-.72,4.09,4.09,0,0,1,1.32,2c.14.8-.43,1.76-1.24,1.7a2,2,0,0,1-1.23-.88A24.58,24.58,0,0,1,80,47.49c.18,1,.72,1.82,1,2.76a2.43,2.43,0,0,1-.67,2.67c-.82.54-2.24-.31-1.83-1.2a5,5,0,0,1-1.07,3.13c-1.09,0-1.52-1.4-1.63-2.49l-.37-3.57a10.9,10.9,0,0,1-1.46,4.42,1.42,1.42,0,0,1-.71.7A1.06,1.06,0,0,1,72,53a3,3,0,0,1,.38-1.69,3.2,3.2,0,0,1-2.8,2.19,8.48,8.48,0,0,1,2.27-5.63,24.48,24.48,0,0,1-3.54,3,1.71,1.71,0,0,1-1,.41c-.74,0-1.19-.92-1-1.63a3.07,3.07,0,0,1,1.47-1.59,5.37,5.37,0,0,1-4.06.46,8.48,8.48,0,0,1,4.8-3.43,10.94,10.94,0,0,1-4.17.64c-.63,0-1.38-.19-1.63-.78-.36-.85.63-1.63,1.47-2-.89-.09-2-.39-2.12-1.27s1.07-1.57,2-1.6a13.12,13.12,0,0,1,4.36.83,11.5,11.5,0,0,1-4.93-2.62c-.5-.45-.9-1.38-.3-1.67a1.09,1.09,0,0,1,.67,0,11.08,11.08,0,0,1,2.3.76,5.15,5.15,0,0,1-1.86-2.5c.39-.64,1.38-.36,2,0a15.25,15.25,0,0,1,3.35,2.91A8.07,8.07,0,0,1,67,33.06a1.73,1.73,0,0,1,.16-1.36,1.35,1.35,0,0,1,1.67-.22A3.93,3.93,0,0,1,70,32.81a3.44,3.44,0,0,1-.64-1.66,1.17,1.17,0,0,1,1-1.24,1.58,1.58,0,0,1,1.08.64,10.71,10.71,0,0,1,2.15,3.5"/><g class="cls-2"><path class="cls-3" d="M72.66,14.74A43,43,0,0,0,68,9.43v.88q4.91-4.4,9.37-9.25h-.89q5,4.55,9.58,9.45V9.62l-3.86,4.31c-.54.6.34,1.48.88.88l3.86-4.3a.65.65,0,0,0,0-.89q-4.6-4.9-9.57-9.44a.64.64,0,0,0-.89,0Q72,5,67.09,9.43a.62.62,0,0,0,0,.88,42.3,42.3,0,0,1,4.49,5.06c.48.64,1.56,0,1.08-.63Z"/><path class="cls-3" d="M100.51,32.69a47.7,47.7,0,0,1,3.42-3.4c.22-.19.38-.43.66-.41s.62.53.8.68c.61.53,1.22,1.08,1.82,1.63a87.2,87.2,0,0,1,6.59,6.73V37q-4.58,4.93-9.27,9.78l.76-.09a20,20,0,0,1-4.53-4.22c-.5-.63-1.37.26-.88.88a20.92,20.92,0,0,0,4.78,4.42.64.64,0,0,0,.76-.1q4.68-4.85,9.27-9.79a.64.64,0,0,0,0-.88,89.13,89.13,0,0,0-7.89-7.9c-.93-.82-2-2.2-3.23-1.19a38.9,38.9,0,0,0-3.95,3.86c-.54.59.34,1.48.89.88Z"/><path class="cls-3" d="M71.85,59.77a29.53,29.53,0,0,0-5.1,4.7.65.65,0,0,0,0,.89q5.07,4.67,9.68,9.79a.62.62,0,0,0,.88,0,64.09,64.09,0,0,1,9.87-9.4.63.63,0,0,0,.13-1A33.5,33.5,0,0,0,83,60.38c-.6-.53-1.49.35-.88.88a34.23,34.23,0,0,1,4.28,4.4l.12-1a65.23,65.23,0,0,0-10.12,9.6h.88q-4.61-5.13-9.68-9.8v.89a28.4,28.4,0,0,1,4.85-4.51c.64-.47,0-1.56-.63-1.08Z"/><path class="cls-3" d="M54.9,32.27l-5.11-5.15a.63.63,0,0,0-.88,0,114.49,114.49,0,0,0-9.7,10,.65.65,0,0,0,0,.88l9.42,9.19a.65.65,0,0,0,.89,0L54,43.1c.59-.55-.3-1.43-.89-.89l-4.47,4.1h.89L40.1,37.12V38a115.8,115.8,0,0,1,9.69-10h-.88L54,33.15c.57.57,1.46-.31.89-.88Z"/><path class="cls-3" d="M55,32.39c-1.84-4.23,1.42-9,5.89-9.31a.66.66,0,0,0,.63-.63A9.22,9.22,0,0,1,65,16.1c2-1.42,4.69-1.93,6.8-.5.67.45,1.3-.63.63-1.08-2.46-1.67-5.72-1.16-8.06.5a10.6,10.6,0,0,0-4.1,7.43l.62-.62a8.11,8.11,0,0,0-7,11.19c.32.74,1.39.1,1.08-.63Z"/><path class="cls-3" d="M82.61,15a8.89,8.89,0,0,1,6.72,2.05A6,6,0,0,1,91,23.19a.63.63,0,0,0,.77.77,6.23,6.23,0,0,1,5.68,1.91c1.47,1.62,2.8,4,2,6.21-.28.76.93,1.08,1.21.33,1-2.63-.55-5.49-2.3-7.42a7.48,7.48,0,0,0-6.9-2.23l.77.76a7.24,7.24,0,0,0-1.84-7.16,9.94,9.94,0,0,0-7.79-2.61c-.8,0-.81,1.28,0,1.25Z"/><path class="cls-3" d="M82.42,61.42a8,8,0,0,0,9.84-8.49l-.62.63a8.23,8.23,0,0,0,7.12-2.87c1.77-2.14,3.24-5.13,2.16-7.9-.28-.74-1.49-.42-1.2.33.94,2.41-.42,5.06-2,6.89a7.07,7.07,0,0,1-6.07,2.3.62.62,0,0,0-.63.62c.46,4.45-3.78,8.5-8.25,7.28a.63.63,0,0,0-.34,1.21Z"/><path class="cls-3" d="M52.92,42.65a13.34,13.34,0,0,0,3.39,8.7,6.1,6.1,0,0,0,7.08,1.52l-.94-.54a8.12,8.12,0,0,0,9.88,8.58.62.62,0,0,0-.33-1.2c-4.5,1.19-8.8-2.92-8.3-7.38,0-.51-.57-.73-.94-.54-2.08,1.06-4.58,0-5.94-1.74a12.69,12.69,0,0,1-2.65-7.4.63.63,0,0,0-1.25,0Z"/><path class="cls-3" d="M77.42,34.86a2.34,2.34,0,0,0-2.25,1.3,2.13,2.13,0,0,0,.37,2.54,2.49,2.49,0,0,0,2.31.62,2,2,0,0,0,1-.65,2.28,2.28,0,0,0,.51-1.24,2.35,2.35,0,0,0-1.15-2.32.63.63,0,0,0-.63,1.08,1.08,1.08,0,0,1,.18.11c.11.07-.11-.1,0,0l.08.07.07.07s0,.11,0,0a2.26,2.26,0,0,0,.13.2l0,.09c.06.12,0-.14,0,0a1.52,1.52,0,0,1,.06.2s0,.11,0,.17c0-.16,0-.09,0,0a.66.66,0,0,1,0,.14,1.48,1.48,0,0,1,0,.21c0,.12,0-.16,0,0a.44.44,0,0,1,0,.1,1.33,1.33,0,0,1,0,.19c0,.12.06-.13,0,0a.75.75,0,0,1-.07.12.41.41,0,0,1,0,.09c0,.06-.09.06,0,0,0,0-.08.09-.12.12a.5.5,0,0,1-.08.07c.07-.1.09-.06,0,0l-.21.11c.13-.08.08,0,0,0l-.09,0-.1,0h-.28c-.06,0-.19,0,0,0-.12,0-.24,0-.36-.09s-.11-.08,0,0l-.1-.05a.82.82,0,0,1-.2-.12c-.06,0-.08-.09,0,0l-.07-.07-.14-.15c-.09-.09.08.13,0,0l-.06-.08,0-.06,0-.06c0-.06,0,0,0,.05,0-.07,0-.14-.06-.21v0s0-.09,0-.11v-.16c0-.07,0-.05,0,0s0-.08,0-.11a.83.83,0,0,1,0-.15v0c0-.06,0-.05,0,0s.06-.11.07-.14l.13-.2c.08-.11-.09.1,0,0a1.14,1.14,0,0,1,.11-.11l.09-.08.06-.06q-.12.09,0,0l.23-.14,0,0-.05,0s.13,0,.15,0l.12,0c.06,0,0,0-.06,0h.36a.61.61,0,0,0,.62-.62.65.65,0,0,0-.62-.63Z"/><path class="cls-3" d="M76,29.55a15.31,15.31,0,0,1-.23-3.64c0-.29,0-1.24.13-1.19.39.12,1,1.67,1.18,2,.35.68,1.24.16,1.14-.48,0-.12-.34-2.31.76-1.48.2.15.17,1.3.18,1.52a14.07,14.07,0,0,1-.17,3c-.12.78,1.08,1.12,1.21.33a7.25,7.25,0,0,1,1-2.71c.22-.36.71-1.18,1.12-.63.21.28.1.92,0,1.23-.09.56.59,1.12,1,.61.32-.35,1.55-.76.71.24a9.85,9.85,0,0,1-.7.74,10.31,10.31,0,0,1-2,1.47A.63.63,0,0,0,82,31.67a10,10,0,0,1,3.65-1.49l1-.05-.82.54-1.63,1.1c-.55.37-.22,1.39.48,1.14a7.49,7.49,0,0,1,2-.46c.77-.07,1.37.09.6.91a7.06,7.06,0,0,1-1.4.85l-1.61,1,.63,1.08c.73-.48,2.44-1.48,3.38-1.08s.08.89-.46,1.26a15.91,15.91,0,0,1-1.55.89c-.67.33-.18,1.27.48,1.14l.74-.13c1.18.4,1.47.75.88,1.06a2.75,2.75,0,0,1-1.14.48,4,4,0,0,1-2.53-.3l-.48,1.15a5.37,5.37,0,0,1,3.19,1.56,1.59,1.59,0,0,1,.41.83c0,.74-.65.75-1.17.51A8.91,8.91,0,0,0,85.23,43a.63.63,0,0,0-.61,1c.41.42,1.32,1.19,1.16,1.85-.49.68-.9.79-1.22.32-.14-.17-.28-.35-.41-.53a23.3,23.3,0,0,1-1.87-2.85.63.63,0,0,0-1.15.49c.22.89.66,1.69.91,2.57a2.59,2.59,0,0,1,.13,1.26,1.3,1.3,0,0,1-.33.79c-.52.32-.86.19-1-.39l-1.23-.17a4.74,4.74,0,0,1-1,2.82l.54-.31c-.95-.12-1-1.89-1.07-2.53l-.3-2.91a.63.63,0,0,0-1.25,0,10.82,10.82,0,0,1-.68,2.73c-.09.23-.46,1.32-.69,1.38L74.4,48a5.93,5.93,0,0,1,.32-.83l-1.21-.33a2.65,2.65,0,0,1-2.19,1.73l.62.63A8.11,8.11,0,0,1,74,44c.53-.6-.32-1.46-.88-.88a26.19,26.19,0,0,1-2.73,2.43c-.33.25-1.19,1.13-1.67.59s.66-1.53,1.1-1.82a.63.63,0,0,0-.63-1.08,4.94,4.94,0,0,1-3.58.4l.38.92a8.09,8.09,0,0,1,4.43-3.15l-.33-1.2a11.36,11.36,0,0,1-3.16.62,3.94,3.94,0,0,1-1.33-.06c-1.27-.64.09-1.3.64-1.59S66.51,38.05,66,38s-1.8-.21-1.3-1.18c.23-.46,1.27-.45,1.68-.45a13.05,13.05,0,0,1,3.74.82L70.41,36a11.28,11.28,0,0,1-3.68-1.68c-.18-.12-1.64-1.11-1.22-1.42.27-.2,1.9.58,2.15.69a.63.63,0,0,0,.63-1.08,4.86,4.86,0,0,1-1.57-2.12l-.16.6c.91-1,3.93,2.34,4.48,3l.89-.89a8,8,0,0,1-2.1-2.75,4.21,4.21,0,0,1-.48-1.52c-.11-.28,0-.49.35-.65.16-.52.39-.61.67-.27a2.49,2.49,0,0,1,.86,1c.45.65,1.5.07,1.08-.63-.15-.27-.67-1-.55-1.34.44-1.2,1.27.1,1.51.4a10.48,10.48,0,0,1,1.52,2.66c.29.74,1.5.41,1.21-.33-.57-1.42-2-4.61-3.85-4.6a1.67,1.67,0,0,0-1.49,1.11,3.11,3.11,0,0,0,.57,2.73l1.08-.63A3.37,3.37,0,0,0,70,26.34a1.73,1.73,0,0,0-1.87,1.34c-.52,2.19,1.43,4.89,3,6.23a.63.63,0,0,0,.89-.89c-1.08-1.22-4.48-5-6.26-3a.65.65,0,0,0-.16.61,6.38,6.38,0,0,0,2.15,2.87l.63-1.08c-.93-.4-2.25-1.07-3.28-.83a1.24,1.24,0,0,0-.82,1.72,4.82,4.82,0,0,0,2.07,2.12,12.76,12.76,0,0,0,3.81,1.69A.63.63,0,0,0,70.41,36c-1.9-.59-5.28-1.79-6.83.16C62.17,37.89,64.5,39,66,39.22l-.31-1.16c-1.24.65-2.79,2.35-1.15,3.52s4.36.33,6-.21c.75-.25.45-1.43-.33-1.2a9.42,9.42,0,0,0-5.18,3.72.62.62,0,0,0,.37.92,6.34,6.34,0,0,0,4.54-.53l-.63-1.08c-1.27.83-2.93,3.14-.85,4.21.92.48,1.78-.15,2.51-.69A26.71,26.71,0,0,0,74,44l-.88-.88a9.48,9.48,0,0,0-2.46,6.07.63.63,0,0,0,.63.62,4,4,0,0,0,3.4-2.65c.29-.77-.9-1.06-1.21-.33a2.66,2.66,0,0,0,0,2.8,1.52,1.52,0,0,0,1.77.53c.82-.35,1.23-1.39,1.56-2.14a12,12,0,0,0,.92-3.53H76.51c.21,2-.15,6.33,2.62,6.69a.63.63,0,0,0,.54-.31,5.89,5.89,0,0,0,1.16-3.45.63.63,0,0,0-1.23-.16,1.83,1.83,0,0,0,2.81,1.85c2.17-1.46.37-4.28-.07-6.09l-1.14.49c.75,1.31,2.49,5.06,4.54,4.34A2,2,0,0,0,87,46a3.84,3.84,0,0,0-1.5-2.88l-.61,1.05c1,.3,1.93,1.18,3.1.81a1.67,1.67,0,0,0,1.07-2c-.31-2.17-2.65-3.13-4.53-3.53-.65-.14-1.17.84-.48,1.14,1.65.74,4.48.93,5.64-.83a1.66,1.66,0,0,0-.26-2.09c-.81-.84-2-.68-3-.48l.48,1.15c1.07-.55,4.51-2.18,3-3.84s-4.25-.29-5.61.61c-.67.44-.06,1.5.63,1.08,1.12-.67,2.31-1.3,3.37-2,.61-.44,1.23-1.06,1-1.87-.45-1.94-3.73-1.07-5-.63l.48,1.14c.81-.54,4.48-2.24,2.6-3.6-1.7-1.23-4.59.5-6.06,1.34L82,31.67a11.22,11.22,0,0,0,2.54-2c.56-.58,1.45-1.45,1.38-2.34a1.46,1.46,0,0,0-1.3-1.24,2.51,2.51,0,0,0-2.14,1.12l1,.6c.19-1.14.08-3.13-1.52-3.11-1.88,0-2.78,3.13-3,4.56l1.21.33a16.15,16.15,0,0,0,.13-4.28c-.09-.77-.2-1.7-1-2.05a1.77,1.77,0,0,0-1.91.51,3.25,3.25,0,0,0-.4,2.74l1.15-.48c-.41-.79-2.4-4.51-3.47-2.13a7.14,7.14,0,0,0-.18,2.69,15.31,15.31,0,0,0,.28,3.24c.18.78,1.38.45,1.21-.33Z"/><path class="cls-3" d="M76.87,63.76a2.31,2.31,0,0,0-2,1.45,2.14,2.14,0,0,0,.54,2.28,2,2,0,0,0,2.39.34A2,2,0,0,0,76.87,64a.64.64,0,0,0-.63.62.65.65,0,0,0,.63.63H77c.14,0,0,0,0,0a.59.59,0,0,1,.17,0h0c-.09,0,0,0,0,0s.12.1.18.11-.07-.06,0,0l.07.08.08.07c0,.05,0,.07,0,0s.07.1.09.14l0,.09s0,0,0,0a.14.14,0,0,1,0,.06,1.05,1.05,0,0,1,.05.19c0,.12,0,0,0,0v.22s0-.16,0,0,0,.2-.06.2.06-.12,0,0l0,.09,0,.07c-.06.1,0,0,0,0a.54.54,0,0,1-.15.15l-.06.06c-.11.1.11-.07,0,0l-.17.1h0c-.07,0,0,0,0,0l-.08,0-.19,0c-.08,0,.16,0,0,0h-.12s-.08,0-.09,0,.15,0,0,0a.61.61,0,0,1-.18,0c-.11,0,0,0,0,0s-.08,0-.08,0-.16-.08-.18-.12.09.07,0,0l-.07-.08s-.11-.08-.12-.12l0,.06,0-.06-.06-.09a.25.25,0,0,0,0-.07.14.14,0,0,1,0-.06s0,0,0,0A1.27,1.27,0,0,0,76,66.1s0-.1,0-.1,0,.16,0,0a.67.67,0,0,1,0-.2c0-.13,0,0,0,0l0-.12a.31.31,0,0,0,0-.08l0-.06s0,0,0,.05.07-.14.11-.19a.43.43,0,0,0,0-.07c.08-.11-.07.08,0,0l.17-.16c.07-.06,0-.06,0,0a.41.41,0,0,1,.11-.07,1.62,1.62,0,0,0,.18-.1c-.08.07-.08,0,0,0l.12,0,.11,0h0a.63.63,0,1,0,0-1.25Z"/><path class="cls-3" d="M47.54,35a2.72,2.72,0,0,0-1.41,1.81A2.15,2.15,0,0,0,47,39a2,2,0,0,0,2.19-.13,2.43,2.43,0,0,0,1-2.17,2,2,0,0,0-.62-1.34,1.8,1.8,0,0,0-1.37-.5.64.64,0,0,0-.63.62c0,.31.28.67.63.63h.19c.09,0-.15,0,0,0l.08,0,.09,0s-.11-.06,0,0l.09.05s.14.1.07,0l0,0,.08.08a.2.2,0,0,0,.06.07c-.07,0-.06-.08,0,0s0,.05,0,.08.06.14,0,.05,0,.07,0,.07l0,.12c0,.05.06.12,0,0a.38.38,0,0,1,0,.1V37c0,.16,0-.08,0,0a.5.5,0,0,0,0,.13.9.9,0,0,1-.08.23s.06-.11,0,0,0,.05,0,.08-.07.1-.1.16.1-.12,0,0l-.06.07a1,1,0,0,1-.15.14c-.07.07,0,0,0,0l-.06,0-.18.11-.07,0c-.06,0-.06,0,0,0l-.19.06L48,38c-.08,0,.13,0,.05,0h-.18c-.11,0,0,0,.05,0h-.08l-.1,0-.05,0,.05,0-.16-.1c-.06,0,0,0,0,0l-.06-.06-.06-.06c-.1-.09.06.09,0,0a1,1,0,0,1-.11-.17v0c0-.06,0,0,0,0s0-.07,0-.08a.75.75,0,0,1,0-.16v0h0v0a.19.19,0,0,0,0-.08,1.48,1.48,0,0,1,0-.21c0-.06,0-.06,0,0s0-.1,0-.13.07-.17.06-.22,0,.1,0,0,0-.08.07-.12.07-.15.12-.18,0,.06,0,0l.09-.11.17-.15s.12-.1,0,0l.07-.05.21-.12a.64.64,0,0,0,.22-.86.63.63,0,0,0-.85-.22Z"/><path class="cls-3" d="M76.73,7.76A1.92,1.92,0,0,0,75,9.55a2.19,2.19,0,0,0,1.42,2.14,2.26,2.26,0,0,0,2.42-.48,2.17,2.17,0,0,0,.41-2.42,2,2,0,0,0-2.38-1A.62.62,0,1,0,77.18,9l.2-.05s-.16,0,0,0h.19c.08,0-.13,0,0,0L77.7,9c.06,0,.06,0,0,0a.3.3,0,0,0,.08,0,1.08,1.08,0,0,1,.18.11s-.12-.1,0,0l.06.06.07.07c.1.11,0,0,0,0l.09.16c0,.06,0,0,0,0a.32.32,0,0,0,0,.09l0,.1c0,.13,0,0,0,0s0,.18,0,.21,0,.06,0,.09,0-.11,0,0a1.16,1.16,0,0,1,0,.18l0,.09c0,.11,0,0,0,0s-.09.18-.11.21v0c0,.05,0,0,0,0s0,.06-.06.07a.86.86,0,0,1-.14.13c-.06.06.13-.07,0,0l-.08,0-.08,0c-.12.07.1,0,0,0l-.2.05a.22.22,0,0,1-.11,0h-.17s-.09,0-.12,0h.08l-.09,0-.18,0s-.14-.07,0,0,0,0,0,0l-.16-.09c-.1-.07,0,0,0,0s-.08-.07-.11-.1l-.07-.08s-.1-.06,0,0a.62.62,0,0,1-.1-.16l0-.1c0-.08,0,.14,0,0a1.16,1.16,0,0,0-.06-.22s0,.15,0,0,0-.1,0-.14,0-.09,0-.09,0,.1,0,0v0l0-.1a.14.14,0,0,0,0-.06c0,.07,0,.09,0,0s.08-.19.12-.21-.1.12,0,0l.09-.09.06-.06,0,0,0,0,.07,0,.08,0-.07,0S77,9,76.73,9a.65.65,0,0,0,.63-.63.64.64,0,0,0-.63-.62Z"/><path class="cls-3" d="M105.93,35.58a2.28,2.28,0,0,0-2.39,0,2.14,2.14,0,0,0-1,2.28,2.44,2.44,0,0,0,1.88,1.77,2.07,2.07,0,0,0,1.42-.24,2.13,2.13,0,0,0,.81-.9,2.32,2.32,0,0,0-.33-2.65.62.62,0,0,0-.88,0,.64.64,0,0,0,0,.88.46.46,0,0,0,.07.07c.07.08-.07-.11,0,0a1.18,1.18,0,0,1,.11.19s0,0,0,0,0-.13,0-.07l0,.09a1.94,1.94,0,0,1,0,.2c0,.11,0-.14,0,0a.34.34,0,0,0,0,.1,1.48,1.48,0,0,1,0,.21s0,.15,0,0,0,0,0,0a1.6,1.6,0,0,1-.05.21.36.36,0,0,0,0,.09c0,.11.06-.12,0,0l-.1.19-.06.08c0,.05.05-.07.05-.06l0,0a1.14,1.14,0,0,1-.15.16l0,0,.06-.05-.08.06-.09,0,0,0c.1,0,0,0,0,0l-.11,0s-.15,0,0,0,0,0-.06,0h-.09a2,2,0,0,0-.24-.05l-.11,0,.07,0-.06,0-.21-.12,0,0c-.07,0,.1.09,0,0l-.09-.07L103.9,38c-.07-.08.07.1,0,0a.86.86,0,0,0-.07-.1l0-.1,0-.06,0,0,0-.1s0-.16,0,0,0,0,0-.06V37.3c0-.07,0,.07,0,.07a1.66,1.66,0,0,0,.06-.21s0,0,0,0l0,.07,0-.09c0-.06.08-.12.11-.18s-.09.11,0,.06l0,0,.07-.07.07-.07s.13-.1,0,0,0,0,0,0l.1-.06.11,0,0,0c.07,0-.12.05,0,0l.23-.08.11,0h0c.08,0-.14,0-.06,0h.27l.06,0,.11,0s.16.06,0,0,0,0,.05,0l.12.07a.63.63,0,0,0,.85-.22.64.64,0,0,0-.22-.86Z"/></g><path class="cls-1" d="M115.74,73A2.13,2.13,0,0,1,118,70.51,4,4,0,0,1,120.85,73,2.72,2.72,0,1,1,126,74.76a2.86,2.86,0,0,1,3.64.37,2.39,2.39,0,0,1-.43,3.49,2.59,2.59,0,0,1,3.13,1.95,3.7,3.7,0,0,1-1.52,3.63,1.38,1.38,0,0,1,1.56.56,2.92,2.92,0,0,1,.45,1.69,4.55,4.55,0,0,1-.75,2.74,2.73,2.73,0,0,1-2.49,1.18,3.13,3.13,0,0,1-4.44,3.92,2.79,2.79,0,0,1-5.14,2,2.62,2.62,0,0,1-3,2,4.54,4.54,0,0,1-3.1-2.4,2.52,2.52,0,0,1-3.52-3.49A2.53,2.53,0,0,1,108.05,88a2.16,2.16,0,0,1-3-1.66,2.68,2.68,0,0,1,2.28-2.8,2.91,2.91,0,1,1,2-5.45,2,2,0,1,1,2.75-2.8A2.19,2.19,0,1,1,115.74,73"/><g class="cls-2"><path class="cls-3" d="M86.41,82.09a11,11,0,0,1,5.25,5C92.75,89,93.84,91.29,96,92.14c.31.12,1.1.12,1.34.3s.34,1.08.47,1.38A5,5,0,0,0,99.65,96a4.17,4.17,0,0,0,5.32-.84.63.63,0,0,0-.28-1,1.26,1.26,0,0,1,0-2.39.62.62,0,0,0-.34-1.2,2.51,2.51,0,0,0,0,4.79l-.27-1a3,3,0,0,1-5.17-1.11c-.27-.7-.19-1.66-1-1.94-.44-.14-.9-.07-1.35-.23a4.12,4.12,0,0,1-1.38-.92c-1.61-1.54-2.3-3.8-3.65-5.55a11.59,11.59,0,0,0-4.75-3.64c-.74-.31-1.07.9-.33,1.21Z"/><path class="cls-3" d="M86.79,81.87A15,15,0,0,0,92,77.15c1.18-1.74,2.68-5.7,5.43-4.78a.63.63,0,0,0,.79-.61c-.17-2.94,2.48-5.91,5.43-4V66.65c-1.28.74-2.64,2.1-2,3.73.6,1.47,2.58,1.1,3.79.83.79-.17.45-1.38-.33-1.21-.57.13-2,.54-2.3-.15-.41-1,.77-1.73,1.45-2.12a.64.64,0,0,0,0-1.08,4.53,4.53,0,0,0-5.17.13,5.79,5.79,0,0,0-2.15,5l.8-.6c-2.61-.87-4.53,1.54-5.71,3.5a15.47,15.47,0,0,1-5.9,6.13c-.7.38-.07,1.46.64,1.08Z"/><path class="cls-3" d="M121.17,116.12a13.58,13.58,0,0,1,2.83-3.44,30.74,30.74,0,0,1,3.58-2.52,13.64,13.64,0,0,0,3.18-2.62c.76-.94,1.37-2.34.32-3.32-.58-.55-1.47.34-.88.89.82.76-.93,2.23-1.46,2.68A32.43,32.43,0,0,1,125.6,110a16.46,16.46,0,0,0-5.51,5.53.63.63,0,0,0,1.08.63Z"/><path class="cls-3" d="M121.22,115.71a10.94,10.94,0,0,0-4.2-5.13c-1-.69-2.16-1.22-3.17-1.92a6,6,0,0,1-1.24-1.11,3.43,3.43,0,0,1-.41-.61c-.06-.13-.11-.25-.16-.39l0-.14c0-.21-.07-.19-.15.08l-.49.06.1,0c.79.15,1.13-1,.33-1.2a.88.88,0,0,0-1.06,1,3.38,3.38,0,0,0,.66,1.63,9.23,9.23,0,0,0,3.09,2.52,16.17,16.17,0,0,1,3.36,2.31A9.15,9.15,0,0,1,120,116c.29.74,1.5.42,1.21-.33Z"/><path class="cls-3" d="M130.46,105a3.94,3.94,0,0,0,5-4.76c-.17-.69-.58-1.52-1.44-1.28a5.7,5.7,0,0,1-.73.25,1.38,1.38,0,0,1-.77-.14c-1.32-.63-.68-2.25-.07-3.14.46-.67-.63-1.29-1.08-.63a3.6,3.6,0,0,0-.45,4,2.63,2.63,0,0,0,2.56,1.17c.36,0,.66-.25,1-.3h-.33c-.11-.15-.13-.15-.05,0l.06.15a3,3,0,0,1,.12.43,2.56,2.56,0,0,1,0,.73,2.74,2.74,0,0,1-.58,1.52,2.79,2.79,0,0,1-2.94.85.62.62,0,0,0-.34,1.2Z"/><path class="cls-3" d="M111.69,105.3a2.73,2.73,0,0,1-3.67-2.78,3.45,3.45,0,0,1,.18-.77c.07-.18.29-.41.32-.58s.07-.21-.28-.13a1.86,1.86,0,0,0,.23.26,1.5,1.5,0,0,0,.42.29,2.24,2.24,0,0,0,2.13-.12c1.46-.88,1.79-3.13,1.15-4.59a2.53,2.53,0,0,0-3.93-1.11l.88.88a3.32,3.32,0,0,0,.11-4.5,5,5,0,0,0-5-1.63.62.62,0,0,0,.33,1.2,3.79,3.79,0,0,1,3.52,1,2.12,2.12,0,0,1,.15,3c-.6.55.27,1.38.88.88.83-.67,1.8.24,2,1a2.76,2.76,0,0,1-.54,2.55,1,1,0,0,1-1.14.24c-.28-.15-.41-.46-.72-.58-.75-.29-1.29.54-1.56,1.11a4,4,0,0,0,4.85,5.51c.76-.25.44-1.46-.33-1.21Z"/><path class="cls-3" d="M141.69,71.15c3.52-1.9,5.84,2.44,7.26,4.84a12.22,12.22,0,0,0,6.48,5.51l.17-1.23c-3.38.21-5.09,3.27-6.46,6-.81,1.6-1.69,3.38-3.25,4.39s-3.59.84-4.43-.9l-1,.75a3.75,3.75,0,0,1-1,5.33l.94.54c-.11-2.3-1.41-5.11-4.15-4.88a2.83,2.83,0,0,0-2.15,4.25l.71-.92a3.27,3.27,0,0,0-3.37.4c-.58.56.3,1.44.88.88s1.48-.28,2.15-.07a.63.63,0,0,0,.71-.92,1.59,1.59,0,0,1,2-2.25c1.44.5,1.9,2.14,2,3.51a.63.63,0,0,0,.94.54,5,5,0,0,0,1.24-7.29c-.46-.59-1.27.16-1,.76,1.49,3.08,5.37,2.41,7.39.32,2.56-2.67,3.41-8.89,7.83-9.16a.63.63,0,0,0,.16-1.23,10.4,10.4,0,0,1-4.85-3.57c-1-1.42-1.73-3.07-2.77-4.49-1.57-2.15-4.55-3.52-7.08-2.16-.71.38-.08,1.46.63,1.08Z"/><path class="cls-3" d="M142.41,70.92c1.72-2.44.21-5.48-2.11-6.84a.64.64,0,0,0-.92.37,4.6,4.6,0,0,1-3.93,3.21,3.54,3.54,0,0,1-2.38-.78,1.83,1.83,0,0,1-.71-1.11c0-.53.63-1,.95-1.38.54-.6-.34-1.48-.88-.88a4.39,4.39,0,0,0-1.27,1.78,2.31,2.31,0,0,0,.52,1.92,4.5,4.5,0,0,0,3.17,1.67c2.67.28,4.87-1.72,5.74-4.1l-.92.38c1.77,1,3,3.25,1.66,5.13-.46.66.62,1.29,1.08.63Z"/><path class="cls-3" d="M111.6,59.46c-2.33-2.89,2.11-5.74,4-7.24a15,15,0,0,0,4.89-6.37l-1.15.15a26.43,26.43,0,0,0,7,6.5c1.27.87,2.71,1.91,3.2,3.44a2.84,2.84,0,0,1-1.28,3.62l.86.86a3.19,3.19,0,0,1,5.61.85l.77-.77c-1.88-.78-4.9-.17-5.44,2.12-.41,1.7,1.78,2.8,3.11,1.88.65-.46,0-1.54-.63-1.08a1.08,1.08,0,0,1-1.16-.06l.09-.88a2.24,2.24,0,0,1,.8-.7,3.28,3.28,0,0,1,2.9-.08c.44.18.91-.35.77-.77a4.47,4.47,0,0,0-7.9-1.14c-.42.55.36,1.08.85.85,2.77-1.27,2.46-4.94.77-7a20.89,20.89,0,0,0-4.26-3.33,20.34,20.34,0,0,1-5-5,.63.63,0,0,0-1.14.15c-1.29,3.54-4.31,5.37-7,7.73-2,1.79-3.49,4.69-1.55,7.1.5.62,1.38-.27.88-.89Z"/><path class="cls-3" d="M112,60.1a4.43,4.43,0,0,0-8.06,2.25.64.64,0,0,0,.8.61,3.48,3.48,0,0,1,3.59,1.67,1.48,1.48,0,0,1-2,2,.63.63,0,0,0-.92.7c.27.94.59,2.13-.43,2.7-.7.39-.07,1.47.63,1.08,1.57-.88,1.44-2.6,1-4.11l-.92.71a2.74,2.74,0,0,0,4-3c-.49-2.2-3.24-3.48-5.31-3l.79.6a3.19,3.19,0,0,1,5.73-1.62c.48.63,1.57,0,1.08-.63Z"/><path class="cls-3" d="M118.12,69.86c-.21-1.34,1.34-2,2.36-1.41a4.2,4.2,0,0,1,1.62,1.91c.27.54,1,.3,1.14-.15a2.1,2.1,0,0,1,3.94,1.44.63.63,0,0,0,.92.7,2.24,2.24,0,0,1,2.74.17,1.73,1.73,0,0,1-.16,2.61.63.63,0,0,0,.48,1.15,2,2,0,0,1,2.37,1.51,3.18,3.18,0,0,1-1.37,3c-.52.43.06,1.16.61,1,1.61-.34,1.24,2.45,1,3.12a2.39,2.39,0,0,1-2.42,1.82.64.64,0,0,0-.61.79,2.54,2.54,0,0,1-3.52,3.22c-.37-.18-1,0-.94.54a2.19,2.19,0,0,1-4,1.65c-.28-.4-1-.42-1.14.15a2,2,0,0,1-2.34,1.58,3.92,3.92,0,0,1-2.62-2.08.64.64,0,0,0-.85-.22,1.91,1.91,0,0,1-2.66-2.64.63.63,0,0,0-.71-.91,1.92,1.92,0,0,1-1.74-3.35c.57-.52-.16-1.24-.76-1a1.56,1.56,0,0,1-2-1.45,2.14,2.14,0,0,1,1.84-1.87c.67-.15.51-1,0-1.21a2.37,2.37,0,0,1-1.21-3.25,2.43,2.43,0,0,1,2.89-1c.73.24,1-.75.49-1.14-1.71-1.28.61-3.61,2-1.82l.88-.89A1.55,1.55,0,1,1,117,70.34c.37.71,1.45.08,1.08-.63a2.91,2.91,0,0,0-4.17-1.11,2.93,2.93,0,0,0-.41,4.22c.5.63,1.37-.26.88-.89a2.72,2.72,0,0,0-4.11-.2,2.76,2.76,0,0,0,.6,4l.48-1.15A3.53,3.53,0,1,0,109,81.23V80a3.27,3.27,0,0,0-2.66,3.87,2.82,2.82,0,0,0,3.83,1.74l-.75-1a3.17,3.17,0,0,0,2.95,5.44l-.7-.92A3.16,3.16,0,0,0,116,93.51l-.86-.22A5,5,0,0,0,119.27,96a3.21,3.21,0,0,0,3.13-2.53l-1.14.15a3.43,3.43,0,0,0,6.3-2.28l-.94.54A3.79,3.79,0,0,0,132,87.26l-.6.79c4.54.23,5.22-8.28,1.06-7.4l.61,1A4.21,4.21,0,0,0,134.58,77a3.24,3.24,0,0,0-3.75-1.93l.48,1.14a3,3,0,0,0,.75-4.22,3.47,3.47,0,0,0-4.59-.72l.91.71a3.34,3.34,0,1,0-6.34-2.1l1.14-.15c-.72-1.43-2.09-3-3.86-2.78a2.79,2.79,0,0,0-2.4,3.24c.12.79,1.33.45,1.2-.33Z"/><path class="cls-3" d="M120,77.05a3.79,3.79,0,0,0-3.49,2.63,4,4,0,0,0,1.36,4.23,4.48,4.48,0,0,0,4.67.47,3.61,3.61,0,0,0,2.18-4c-.4-1.94-2.22-3.08-4-3.55a.63.63,0,0,0-.34,1.21,4.26,4.26,0,0,1,3,2.06,2.26,2.26,0,0,1-.94,2.94,3.31,3.31,0,0,1-3.33.16,2.88,2.88,0,0,1-1.44-2.73A2.51,2.51,0,0,1,120,78.3a.63.63,0,0,0,0-1.25Z"/></g><path class="cls-1" d="M26.6,74.07a3.61,3.61,0,0,1,6.93-.18,1.66,1.66,0,0,1,2.78,1.48A3,3,0,0,1,40.18,80a1.34,1.34,0,0,1,1.73.09A1.32,1.32,0,0,1,42,81.77a2.88,2.88,0,0,1,2.77,2.78,3.45,3.45,0,0,1-2.48,3.22,1.67,1.67,0,0,1-.18,3.3,3.91,3.91,0,0,1-5.68,4.51,1.3,1.3,0,1,1-2,1.72,4.21,4.21,0,0,1-6.54.36A1.58,1.58,0,0,1,25,96.51,3.55,3.55,0,0,1,20.66,93a1.38,1.38,0,0,1-1.6-2.23,3,3,0,0,1-.31-5.6,1.46,1.46,0,1,1,0-2.91,2.93,2.93,0,0,1-.4-3.19,4.93,4.93,0,0,1,2.29-2.56c1-.39,1.66,0,2.63,0-.71-.67-.14-2,.7-2.51a2.45,2.45,0,0,1,2.64,0"/><g class="cls-2"><path class="cls-3" d="M18.71,66c-1.83-2.42.6-6.65,2.16-8.63a49.86,49.86,0,0,1,8.67-8A7.5,7.5,0,0,1,32,47.91a3.92,3.92,0,0,1,3.17.81,34.43,34.43,0,0,1,4.16,2.91,80.33,80.33,0,0,1,6.22,6.16,12.55,12.55,0,0,1,2.82,3.43A5.68,5.68,0,0,1,48,66.31c-.47.65.61,1.27,1.08.63a6.73,6.73,0,0,0,.85-4.71,6.65,6.65,0,0,0-1.86-3.57,77.89,77.89,0,0,0-7.49-7.6,35.82,35.82,0,0,0-4.78-3.42c-1.7-1-3.34-1.46-5.19-.5a31.8,31.8,0,0,0-5.37,4.1,38.4,38.4,0,0,0-5.12,5.08c-1.94,2.41-4.75,7.32-2.49,10.31.48.64,1.56,0,1.08-.63Z"/><path class="cls-3" d="M18.48,65.78c-2.27-1.68-5.92.26-7.79,1.71a44.63,44.63,0,0,0-8.24,9C.28,79.4-.94,82.71.89,86.12s5.17,6.37,8.16,8.8c2.67,2.17,6.27,4.79,9.91,3.72a.63.63,0,0,0-.33-1.21C15,98.5,11.25,95.2,8.73,93a45.71,45.71,0,0,1-4.9-4.94c-1.39-1.63-2.78-3.55-2.65-5.8s1.48-4,2.76-5.69S6.68,73,8.21,71.38a19.63,19.63,0,0,1,4.64-3.83c1.33-.73,3.6-1.73,5-.7.65.48,1.27-.6.63-1.07Z"/><path class="cls-3" d="M18.35,97.59c-1.93,2.1-1,6,.52,8a35.68,35.68,0,0,0,4.59,4.77,33.69,33.69,0,0,0,4.94,3.89c3.65,2.2,7.31,1,10.51-1.42A59,59,0,0,0,44,108.55a24.55,24.55,0,0,0,4.33-4.83,10.5,10.5,0,0,0,1.44-4.14c.17-1.14.34-2.81-.69-3.63-.62-.49-1.51.39-.88.89.94.75.33,2.88.08,3.87a10.47,10.47,0,0,1-2.66,4.48A63,63,0,0,1,40.45,110a19.7,19.7,0,0,1-5.7,3.79c-4.59,1.68-8.57-2.51-11.59-5.42-1.55-1.49-3.64-3.26-4.31-5.37-.39-1.24-.56-3.5.39-4.53.54-.59-.34-1.48-.89-.89Z"/><path class="cls-3" d="M48.85,67.16c1.82-1.17,4.24,0,5.95.89a17.91,17.91,0,0,1,4.29,3.47c2.67,2.7,6.83,5.72,6.48,10-.34,4-3.68,7.36-6.3,10.17s-6.4,5.59-10.5,4.14c-.76-.27-1.09.94-.34,1.21,3.23,1.14,6.61-.07,9.2-2.11A30.55,30.55,0,0,0,61.57,91,35.94,35.94,0,0,0,65,86.61c1.83-2.9,2.61-6.55.75-9.63a22.9,22.9,0,0,0-3.58-4.1C60.82,71.5,59.5,70.07,58,68.8c-2.33-2-6.78-4.68-9.82-2.72-.67.44,0,1.52.63,1.08Z"/><path class="cls-3" d="M29.67,70.63a3,3,0,0,1,5.72-.18c.13.33.57.64.92.38a1.07,1.07,0,0,1,1.84.93.63.63,0,0,0,.94.54,2.4,2.4,0,0,1,3.11,3.62c-.46.5.13,1.37.76,1s1.43.19,1,.95a.63.63,0,0,0,.53,1,2.23,2.23,0,0,1,2.13,2.4,2.85,2.85,0,0,1-2,2.36.63.63,0,0,0,0,1.2,1.06,1.06,0,0,1-.17,2.1.64.64,0,0,0-.44.77,3.33,3.33,0,0,1-4.76,3.81c-.51-.26-1.23.3-.85.85s-.19,1.69-1,1a.64.64,0,0,0-1,.13,3.6,3.6,0,0,1-5.56.23.62.62,0,0,0-1,.13,1,1,0,0,1-1.8-.67.64.64,0,0,0-.77-.77,2.93,2.93,0,0,1-3.53-2.9.64.64,0,0,0-.94-.54c-.91.26-1.19-.16-.84-1.24a.63.63,0,0,0-.28-1,2.41,2.41,0,0,1-.16-4.46c.6-.32.25-1.11-.31-1.17-1.15-.54-1.15-1.1,0-1.66.41,0,.87-.52.54-.94-.93-1.22-.59-2.46.22-3.63a2.7,2.7,0,0,1,1.94-1.35,14.42,14.42,0,0,1,1.83.2c.59,0,.75-.69.44-1.07s.18-1.27.57-1.53a1.94,1.94,0,0,1,2,0,.63.63,0,0,0,.63-1.08,3.13,3.13,0,0,0-3.86.46,2.25,2.25,0,0,0-.24,3l.45-1.07a6.36,6.36,0,0,0-2.88,0,4.34,4.34,0,0,0-2,1.75c-1,1.53-1.42,3.32-.22,4.89L21.2,78a2.08,2.08,0,0,0,0,4.16L20.9,81a3.67,3.67,0,0,0,.46,6.74l-.27-1a2,2,0,0,0,2.35,3.2l-.94-.54a4.19,4.19,0,0,0,5.11,4.1l-.77-.76a2.21,2.21,0,0,0,4.09,1.63l-1,.12A4.85,4.85,0,0,0,37.47,94l-1,.13a1.93,1.93,0,0,0,2.95-2.48l-.86.86a4.59,4.59,0,0,0,6.59-5.22l-.43.77a2.3,2.3,0,0,0,.18-4.51v1.2a4.09,4.09,0,0,0,2.93-4,3.52,3.52,0,0,0-3.39-3.23l.54.94a1.92,1.92,0,0,0-2.67-2.67l.76,1a3.64,3.64,0,0,0-4.63-5.58l.94.54a2.29,2.29,0,0,0-3.72-2l.92.37a4.28,4.28,0,0,0-8.14.18c-.24.76,1,1.09,1.21.33Z"/><path class="cls-3" d="M32.13,54.48a3.07,3.07,0,0,0-3.05,2.81A3.92,3.92,0,0,0,31.24,61a4.47,4.47,0,0,0,4.64-.1,3.43,3.43,0,0,0,1.26-2.76,4.52,4.52,0,0,0-2.6-3.76c-.72-.37-1.35.71-.63,1.08a3.53,3.53,0,0,1,1.93,2.24,2.51,2.51,0,0,1,0,.61c0,.07,0,.14,0,.21s0-.15,0,0a2.48,2.48,0,0,1-.37,1c-.64.93-2,.94-3,.64A2.94,2.94,0,0,1,30.35,58a1.85,1.85,0,0,1,1.78-2.26c.81,0,.81-1.22,0-1.25Z"/><path class="cls-3" d="M9.12,79.06a4.21,4.21,0,0,0-3.45,1.73,3.78,3.78,0,0,0-.76,1.74,2.94,2.94,0,0,0,.63,2.37c1.65,2,5.18,2.08,6.52-.31a3.67,3.67,0,0,0-.14-4,.66.66,0,0,0-.86-.23.63.63,0,0,0-.22.86,2.47,2.47,0,0,1-1.55,3.87,3.09,3.09,0,0,1-2.46-.71,1.75,1.75,0,0,1-.72-1.32,2.63,2.63,0,0,1,.4-1.36,3,3,0,0,1,2.61-1.44c.81,0,.81-1.22,0-1.25Z"/><path class="cls-3" d="M32.43,102.62a3.92,3.92,0,0,0-3.16,2.22,3.79,3.79,0,0,0,3.84,5.33,3.8,3.8,0,0,0,3-2.16,3.93,3.93,0,0,0-.71-4.24c-.55-.59-1.43.29-.88.88a2.67,2.67,0,0,1,.58,2.51,2.5,2.5,0,0,1-1.86,1.71,2.42,2.42,0,0,1-2.38-.69,2.56,2.56,0,0,1-.64-2.45,2.67,2.67,0,0,1,2.17-1.86.63.63,0,1,0,0-1.25Z"/><path class="cls-3" d="M56.31,82.76a1.85,1.85,0,0,1-.9-2A2.88,2.88,0,0,1,57,78.66a2.61,2.61,0,0,1,2.67.2,2.49,2.49,0,0,1,1.09,2.3,2.44,2.44,0,0,1-2,2,.63.63,0,0,0,0,1.25,3.69,3.69,0,0,0,3.08-2.51,3.6,3.6,0,0,0-1.07-3.77,3.83,3.83,0,0,0-3.92-.79,4.18,4.18,0,0,0-2.66,3A3.13,3.13,0,0,0,56,84a.63.63,0,0,0,.76-.44.64.64,0,0,0-.43-.77Z"/><path class="cls-3" d="M33,76.77A5.87,5.87,0,0,0,28.11,80a4.25,4.25,0,0,0,1.16,5.35,6.12,6.12,0,0,0,5.93,1,4.6,4.6,0,0,0,2.2-1.84A5.19,5.19,0,0,0,38,81.21a3.78,3.78,0,0,0-1.47-2.9c-.86-.61-1.94-.81-2.83-1.36-.69-.43-1.32.65-.63,1.08,1.16.72,3,.87,3.52,2.37a3.83,3.83,0,0,1-1.22,4.38,4.49,4.49,0,0,1-4.6,0,3.71,3.71,0,0,1-1.73-1.66,3.09,3.09,0,0,1,0-2.08,4.51,4.51,0,0,1,4-3c.8-.06.8-1.31,0-1.25Z"/></g></g></g></svg>